<svg width="58" height="70" viewBox="0 0 58 70" fill="none" xmlns="http://www.w3.org/2000/svg">
<path d="M28.7861 0H0V34.8209C0 41.3187 2.18822 47.3378 5.86305 52.1764C9.5354 57.5913 15.112 61.5468 20.5434 65.092L28.7861 70L37.0322 65.092C42.4611 61.5468 48.0394 57.5913 51.7092 52.1764C55.3824 47.3378 57.5748 41.3187 57.5748 34.8209V0H28.7861ZM6.57787 34.8209V6.58447H28.7861H50.9961V34.8209C50.9961 40.5642 48.8021 45.8107 45.2123 49.7497L43.2403 23.6602H43.2576L46.0063 19.9887V14.2511C46.0063 13.7294 45.5887 13.3027 45.0529 13.3027H42.2927C41.7735 13.3027 41.3468 13.7294 41.3468 14.2511V17.0023H38.5783V14.2511C38.5783 13.7294 38.1507 13.3027 37.6191 13.3027H34.8646C34.343 13.3027 33.9096 13.7294 33.9096 14.2511V17.0023H31.1444L31.1031 14.2395C31.0965 13.7187 30.669 13.3027 30.1547 13.3027H28.7919H28.7861H28.7804H27.4192C26.9042 13.3027 26.4774 13.7187 26.4692 14.2395L26.4295 17.0023H23.661V14.2511C23.661 13.7294 23.2368 13.3027 22.711 13.3027H19.9532C19.4208 13.3027 18.9965 13.7294 18.9965 14.2511V17.0023H16.228V14.2511C16.228 13.7294 15.8029 13.3027 15.2862 13.3027H12.5193C11.9927 13.3027 11.5726 13.7294 11.5726 14.2511V19.9887L14.3147 23.6602H14.3361L12.365 49.7497C8.77023 45.8107 6.57787 40.5642 6.57787 34.8209ZM26.2067 44.7186V38.556C26.2067 37.856 25.9326 37.1734 25.4052 36.7144C24.3379 35.7743 23.6668 34.4073 23.6668 32.8762C23.6668 30.054 25.9673 27.7948 28.7861 27.7948C31.6083 27.7948 33.903 30.054 33.903 32.8762C33.903 34.4073 33.2303 35.7743 32.1655 36.7144C31.643 37.1734 31.3648 37.856 31.3648 38.556V44.7186C31.3648 45.5655 30.6912 46.2465 29.8435 46.2465H28.7861H27.7362C26.8852 46.2465 26.2067 45.5655 26.2067 44.7186Z" fill="url(#paint0_linear_726_785)"/>
<defs>
<linearGradient id="paint0_linear_726_785" x1="0.0127942" y1="35.0124" x2="57.5874" y2="35.0124" gradientUnits="userSpaceOnUse">
<stop stop-color="#92481D"/>
<stop offset="0.5" stop-color="#CBA93E"/>
<stop offset="1" stop-color="#FFCB74"/>
</linearGradient>
</defs>
</svg>
